<svg width="30" height="40" viewBox="0 0 30 40" fill="none" xmlns="http://www.w3.org/2000/svg">
<path fill-rule="evenodd" clip-rule="evenodd" d="M22.2741 9.36394C24.6565 9.36394 27.1818 10.8499 28.98 13.4199C23.0859 17.1219 24.0441 26.7678 30 29.3458C29.1794 31.4258 28.7876 32.3558 27.7324 34.1978C26.2588 36.7658 24.1853 39.9657 21.6106 39.9937C19.3253 40.0177 18.7377 38.2878 15.6353 38.3078C12.533 38.3278 11.8853 40.0237 9.60001 39.9997C7.02707 39.9717 5.05943 37.0838 3.5859 34.5138C-0.532922 27.3298 -0.96351 18.8999 1.57766 14.4199C3.38296 11.2319 6.22943 9.36594 8.90825 9.36594C11.6347 9.36594 13.3482 11.0799 15.6035 11.0799C17.7918 11.0799 19.1224 9.36394 22.2741 9.36394ZM21.5824 0C21.9 2.42998 21.0282 4.80997 19.8829 6.49396C18.6565 8.29795 16.5441 9.69594 14.5006 9.62394C14.13 7.29795 15.0865 4.90397 16.2477 3.28998C17.5235 1.50999 19.7118 0.147999 21.5824 0Z" fill="white"/>
</svg>
