<svg width="38" height="40" viewBox="0 0 38 40" fill="none" xmlns="http://www.w3.org/2000/svg">
<path d="M28.0346 26.1611C32.8542 23.5544 36.5079 21.5681 36.8228 21.4137C37.8302 20.886 38.8706 19.4893 36.8228 18.4044C36.1616 18.0632 32.6018 16.1388 28.0346 13.657L21.7031 19.9554L28.0346 26.1609V26.1611Z" fill="#FFD900"/>
<path d="M21.7035 19.9554L1.54346 39.9692C2.01666 40.0309 2.55089 39.9073 3.18074 39.5663C4.5031 38.8533 18.5213 31.3126 28.035 26.1626L21.7035 19.9554Z" fill="#F43249"/>
<path d="M21.7031 19.9554L28.0346 13.688C28.0346 13.688 4.59831 1.08957 3.18033 0.34587C2.6461 0.0342041 2.04743 -0.0583742 1.51172 0.0342042L21.7031 19.9554Z" fill="#00EE76"/>
<path d="M21.7034 19.9554L1.51197 0.0341797C0.692508 0.220799 0 0.933931 0 2.39237V37.6109C0 38.9458 0.535862 39.9072 1.54329 40L21.7034 19.9554Z" fill="#00D3FF"/>
</svg>
